<?xml version="1.0" ?><!DOCTYPE svg  PUBLIC '-//W3C//DTD SVG 1.1//EN'  'http://www.w3.org/Graphics/SVG/1.1/DTD/svg11.dtd'><svg height="512px" style="shape-rendering:geometricPrecision; text-rendering:geometricPrecision; image-rendering:optimizeQuality; fill-rule:evenodd; clip-rule:evenodd" version="1.1" viewBox="0 0 512 512" width="512px" xml:space="preserve" xmlns="http://www.w3.org/2000/svg" xmlns:xlink="http://www.w3.org/1999/xlink" xmlns:xodm="http://www.corel.com/coreldraw/odm/2003"><defs><style type="text/css">
   <![CDATA[
    .fil0 {fill:black}
   ]]>
  </style></defs><g id="Layer_x0020_1"><path class="fil0" d="M256 0c141.39,0 256,114.61 256,256 0,141.39 -114.61,256 -256,256 -141.39,0 -256,-114.61 -256,-256 0,-141.39 114.61,-256 256,-256zm-33.14 380.34c0,1.77 1.44,3.21 3.21,3.21l45.8 0c1.78,0 3.21,-1.44 3.21,-3.21l0 -125.35 33.21 0c1.67,0 3.06,-1.27 3.2,-2.94l3.19 -37.76c0.16,-1.88 -1.31,-3.49 -3.2,-3.49l-36.4 0 0 -26.79c0,-6.28 5.09,-11.37 11.37,-11.37l25.6 0c1.77,0 3.21,-1.44 3.21,-3.22l0 -37.76c0,-1.77 -1.44,-3.21 -3.22,-3.21l-43.23 0c-25.38,0 -45.95,20.57 -45.95,45.94l0 36.41 -22.9 0c-1.78,0 -3.22,1.44 -3.22,3.22l0 37.76c0,1.78 1.44,3.21 3.22,3.21l22.9 0 0 125.35z"/></g></svg>